<?xml version="1.0" encoding="UTF-8"?>
<svg id="Layer_2" data-name="Layer 2" xmlns="http://www.w3.org/2000/svg" viewBox="0 0 282.17 83.2">
  <defs>
    <style>
      .cls-1 {
        fill: #fc4615;
      }

      .cls-2 {
        fill: #fff;
      }
    </style>
  </defs>
  <g id="Layer_1-2" data-name="Layer 1">
    <g>
      <g>
        <circle class="cls-1" cx="41.6" cy="41.6" r="41.6"/>
        <g>
          <path class="cls-2" d="M65.79,42.77c-.06.62-.11,1.24-.17,1.86-.02.2-.05.4-.08.62-.47.03-.93.07-1.38.09-2.58.11-5.17.21-7.75.33-.72.03-1.46.02-2.16.19-1.37.32-2.26,1.22-2.6,2.57-.34,1.36.07,2.53,1.07,3.51,2.18,2.15,4.35,4.3,6.53,6.45.04.03.06.08.13.16-.44.42-.87.85-1.33,1.3-.52-.48-1.04-.94-1.55-1.42-2.45-2.25-4.9-4.49-7.33-6.77-1.06-1-1.84-2.2-2.12-3.68-.81-4.26,1.84-7.86,5.69-8.53.9-.16,1.83-.14,2.74-.18,2.79-.12,5.57-.24,8.36-.35.56-.02,1.11,0,1.73,0,.08.86.16,1.74.24,2.63v1.22Z"/>
          <path class="cls-2" d="M19.81,31.41c.97-1.95,2.15-3.71,3.59-5.33.87.57,1.72,1.13,2.57,1.69,2.3,1.52,4.58,3.04,6.89,4.54,1.21.78,2.48.81,3.72.08,1.22-.72,1.83-1.84,1.75-3.25-.05-.87-.26-1.73-.4-2.6-.44-2.68-.88-5.37-1.32-8.05,0-.01,0-.02.04-.09.49-.08,1.01-.16,1.53-.25.23-.04.26.1.3.29.58,2.88,1.17,5.75,1.74,8.63.28,1.41.58,2.81.8,4.23.65,4.17-2.52,7.54-5.89,8.02-1.89.27-3.6-.13-5.19-1.19-3.21-2.15-6.43-4.27-9.65-6.4-.15-.1-.29-.2-.48-.32Z"/>
          <path class="cls-2" d="M51.74,20.18c-.18.65-.35,1.3-.52,1.95-.82,2.95-1.64,5.9-2.45,8.86-.63,2.29,1.08,4.56,3.43,4.5.55-.01,1.14-.18,1.64-.42,2.9-1.46,5.77-2.97,8.66-4.45.08-.04.16-.08.29-.13.27.55.54,1.09.83,1.66-.78.44-1.52.86-2.26,1.28-2.82,1.59-5.63,3.19-8.46,4.75-1.24.69-2.56,1.16-4.01,1.06-4.08-.28-6.44-3.21-6.81-6.2-.16-1.25.1-2.42.43-3.61.99-3.52,1.97-7.05,2.95-10.58.16-.59.16-.59.76-.47,1.83.35,3.6.91,5.29,1.69.07.03.13.07.23.12Z"/>
          <path class="cls-2" d="M24.73,59.58c-1.56-1.49-2.87-3.14-3.99-5,.1-.09.2-.18.3-.27,2.66-2.12,5.32-4.25,7.98-6.36,1.24-.99,1.71-2.26,1.33-3.79-.35-1.44-1.57-2.4-3.13-2.63-2.8-.41-5.6-.85-8.41-1.28-.45-.07-.9-.13-1.41-.21.07-.62.14-1.21.21-1.84.79.09,1.55.17,2.3.26,1.68.19,3.36.37,5.04.58,2.09.26,4.2.47,6.27.85,3.23.6,5.14,3.74,5.34,6.11.21,2.55-.63,4.66-2.62,6.27-2.98,2.41-6,4.78-9,7.16-.06.05-.12.09-.21.15Z"/>
          <path class="cls-2" d="M31.98,64.42c-.56-.27-1.11-.53-1.68-.81.45-.99.89-1.95,1.33-2.91,1.24-2.7,2.47-5.41,3.73-8.11,1.05-2.24,2.79-3.61,5.23-4.09,3.35-.65,6.71,1.23,7.9,4.44,1.3,3.48,2.59,6.96,3.89,10.43.08.22.13.37-.16.51-1.73.83-3.52,1.47-5.38,1.9-.31.07-.43,0-.55-.3-1.14-3.06-2.29-6.12-3.44-9.18-.56-1.48-1.62-2.35-3.2-2.44-1.56-.08-2.71.67-3.41,2.07-1.36,2.71-2.72,5.41-4.08,8.12-.06.11-.12.22-.2.36Z"/>
        </g>
      </g>
      <g>
        <g>
          <path class="cls-1" d="M104.15,42.7c-2.14,0-3.58-1.44-3.58-3.58v-17.07c0-2.14,1.44-3.58,3.58-3.58h1.83c2.14,0,3.58,1.44,3.58,3.58v12.36h4.66c2.14,0,3.58,1.44,3.58,3.58v1.13c0,2.14-1.44,3.58-3.58,3.58h-10.08Z"/>
          <rect class="cls-1" x="115.77" y="18.46" width="9" height="24.24" rx="3.58" ry="3.58"/>
          <path class="cls-1" d="M135.53,43.04c-1.55,0-3.07-.29-4.5-.87-1.43-.57-2.72-1.4-3.82-2.47-1.12-1.07-2.01-2.39-2.66-3.92-.65-1.53-.98-3.24-.98-5.09s.32-3.49.94-5.02c.63-1.54,1.52-2.89,2.65-4.01,1.13-1.12,2.48-2,4.02-2.63,1.54-.62,3.23-.94,5.03-.94.93,0,1.82.08,2.64.23.78.15,1.51.32,2.15.53.67.21,1.26.45,1.76.71.5.26.89.49,1.19.7.9.67,1.41,1.45,1.54,2.35.11.81-.09,1.65-.6,2.5l-.75,1.19c-.23.39-.49.68-.76.91h.03c2.14,0,3.58,1.44,3.58,3.58v8.3c0,2.14-1.44,3.58-3.58,3.58h-.93c-.9,0-1.66-.23-2.27-.67-.51.25-1.09.46-1.77.65-.85.24-1.82.36-2.91.36ZM136.52,26.7c-.73,0-1.34.1-1.81.3-.45.19-.81.44-1.09.76-.29.33-.5.69-.64,1.12-.16.49-.24,1.01-.24,1.55,0,.67.1,1.25.31,1.74.21.51.48.92.82,1.26.32.33.69.58,1.13.75.46.18.93.27,1.44.27.07,0,.13,0,.2,0-.59-.62-.93-1.5-.93-2.54v-1.1c0-2.02,1.27-3.41,3.21-3.57-.28-.13-.58-.25-.89-.36-.24-.09-.7-.19-1.5-.19Z"/>
          <path class="cls-1" d="M161.89,42.7c-2.14,0-3.58-1.44-3.58-3.58v-4.32h-3.27v4.32c0,2.14-1.44,3.58-3.58,3.58h-1.83c-2.14,0-3.59-1.44-3.59-3.58v-17.07c0-2.14,1.44-3.58,3.59-3.58h1.83c2.14,0,3.58,1.44,3.58,3.58v4.49h3.27v-4.49c0-2.14,1.44-3.58,3.58-3.58h1.83c2.14,0,3.58,1.44,3.58,3.58v17.07c0,2.14-1.44,3.58-3.58,3.58h-1.83Z"/>
          <path class="cls-1" d="M175.07,42.7c-2.14,0-3.58-1.44-3.58-3.58v-12.36h-2.54c-2.14,0-3.58-1.44-3.58-3.58v-1.13c0-2.14,1.44-3.58,3.58-3.58h14.08c2.14,0,3.58,1.44,3.58,3.58v1.13c0,2.14-1.44,3.58-3.58,3.58h-2.54v12.36c0,2.14-1.44,3.58-3.58,3.58h-1.83Z"/>
          <path class="cls-1" d="M200.52,42.7c-2.14,0-3.58-1.44-3.58-3.58v-4.32h-3.27v4.32c0,2.14-1.44,3.58-3.58,3.58h-1.83c-2.14,0-3.58-1.44-3.58-3.58v-17.07c0-2.14,1.44-3.58,3.58-3.58h1.83c2.14,0,3.58,1.44,3.58,3.58v4.49h3.27v-4.49c0-2.14,1.44-3.58,3.58-3.58h1.83c2.14,0,3.58,1.44,3.58,3.58v17.07c0,2.14-1.44,3.58-3.58,3.58h-1.83Z"/>
          <path class="cls-1" d="M217.32,43.04c-1.83,0-3.53-.33-5.08-.98-1.54-.65-2.89-1.55-4.01-2.69-1.12-1.14-1.99-2.49-2.6-4.02-.6-1.51-.91-3.16-.91-4.9s.31-3.32.91-4.81c.61-1.5,1.48-2.83,2.6-3.95,1.12-1.12,2.47-2.01,4.02-2.63,1.54-.62,3.24-.94,5.05-.94s3.52.32,5.05.94c1.54.63,2.9,1.51,4.02,2.63,1.12,1.12,2,2.45,2.6,3.95.6,1.49.91,3.11.91,4.81s-.3,3.39-.91,4.9c-.61,1.53-1.48,2.88-2.6,4.02-1.12,1.14-2.47,2.05-4.01,2.69-1.54.65-3.25.98-5.08.98ZM217.32,26.7c-.51,0-.96.09-1.37.27s-.75.42-1.04.73c-.31.33-.54.72-.72,1.18-.18.47-.27.99-.27,1.57,0,.62.09,1.19.28,1.69.19.5.43.91.74,1.26.3.33.64.59,1.06.78.4.19.84.28,1.33.28s.93-.09,1.33-.28c.42-.2.77-.45,1.06-.78.31-.35.55-.76.74-1.26.19-.5.28-1.07.28-1.69,0-.58-.09-1.09-.27-1.57-.18-.47-.42-.85-.72-1.18-.29-.31-.63-.55-1.05-.73-.41-.18-.86-.27-1.37-.27Z"/>
          <path class="cls-1" d="M238.99,43.04c-1.51,0-2.92-.24-4.19-.7-1.29-.48-2.42-1.16-3.35-2.03-.94-.88-1.68-1.94-2.19-3.14-.51-1.2-.77-2.51-.77-3.91v-11.2c0-2.14,1.44-3.58,3.58-3.58h1.83c2.14,0,3.58,1.44,3.58,3.58v11.2c0,.31.04.72.24.89.25.21.66.32,1.22.32s.98-.11,1.22-.32c.2-.17.24-.58.24-.89v-11.2c0-2.14,1.44-3.58,3.58-3.58h1.83c2.14,0,3.58,1.44,3.58,3.58v11.2c0,1.4-.26,2.72-.77,3.92-.51,1.21-1.25,2.26-2.19,3.14-.93.87-2.05,1.55-3.33,2.03-1.26.47-2.66.71-4.15.71Z"/>
          <path class="cls-1" d="M257.14,43.04c-.85,0-1.67-.08-2.45-.24-.74-.15-1.45-.34-2.08-.57-.65-.23-1.25-.49-1.77-.77-.55-.29-1-.57-1.36-.86-.25-.19-.51-.44-.73-.71-.29-.36-.5-.78-.62-1.23-.13-.5-.14-1.02-.02-1.54.11-.48.33-.94.68-1.44l.86-1.25c.76-1.12,1.68-1.46,2.32-1.55.06,0,.11-.01.17-.02-.23-.15-.46-.31-.68-.47-.86-.64-1.59-1.43-2.16-2.35-.65-1.03-.97-2.28-.97-3.72,0-1.23.25-2.37.75-3.41.49-1.01,1.17-1.9,2.02-2.63.84-.71,1.84-1.27,2.97-1.64,1.09-.36,2.26-.54,3.49-.54,1.4,0,2.71.2,3.89.6,1.17.39,2.06.81,2.71,1.26,1.11.81,1.46,1.7,1.56,2.32.13.78-.01,1.58-.41,2.38l-.68,1.34c-.8,1.55-1.93,1.89-2.61,1.93.38.22.74.45,1.09.71.87.63,1.6,1.42,2.18,2.34.65,1.03.97,2.28.97,3.72,0,1.11-.21,2.18-.62,3.18-.42,1.03-1.04,1.94-1.85,2.71-.8.76-1.77,1.36-2.9,1.8-1.12.43-2.38.64-3.75.64Z"/>
          <path class="cls-1" d="M268.65,42.7c-2.14,0-3.58-1.44-3.58-3.58v-17.07c0-2.14,1.44-3.58,3.58-3.58h9.54c2.14,0,3.58,1.44,3.58,3.58v1.13c0,2.07-1.35,3.49-3.37,3.58,1.13.57,1.82,1.71,1.82,3.19v1.13c0,1.61-.81,2.83-2.13,3.33h.49c2.14,0,3.58,1.44,3.58,3.58v1.13c0,2.14-1.44,3.58-3.58,3.58h-9.93Z"/>
        </g>
        <g>
          <path class="cls-2" d="M102.59,22.04c0-1.03.52-1.55,1.55-1.55h1.83c1.03,0,1.55.52,1.55,1.55v14.39h6.69c1.03,0,1.55.52,1.55,1.55v1.13c0,1.03-.52,1.55-1.55,1.55h-10.08c-1.04,0-1.55-.52-1.55-1.55v-17.07Z"/>
          <path class="cls-2" d="M117.81,22.04c0-1.03.52-1.55,1.55-1.55h1.83c1.03,0,1.55.52,1.55,1.55v17.07c0,1.03-.52,1.55-1.55,1.55h-1.83c-1.04,0-1.55-.52-1.55-1.55v-17.07Z"/>
          <path class="cls-2" d="M125.6,30.71c0-1.54.26-2.96.79-4.25.53-1.29,1.26-2.4,2.2-3.33.94-.93,2.06-1.66,3.36-2.19,1.3-.53,2.72-.79,4.26-.79.81,0,1.57.07,2.27.2.71.13,1.34.29,1.91.47.56.18,1.05.37,1.45.58.4.21.71.39.92.54.43.32.67.65.72.99.05.34-.06.72-.32,1.16l-.73,1.16c-.26.43-.57.67-.92.72-.35.05-.76-.05-1.23-.3-.47-.24-.99-.47-1.57-.68-.57-.21-1.3-.31-2.19-.31-1.02,0-1.89.16-2.61.47-.72.31-1.33.73-1.81,1.27s-.83,1.15-1.06,1.85c-.23.7-.34,1.42-.34,2.17,0,.94.16,1.78.47,2.53.31.74.72,1.38,1.24,1.9.52.53,1.12.93,1.82,1.21.7.28,1.43.42,2.2.42.71,0,1.34-.08,1.86-.25.53-.17.96-.36,1.3-.56.4-.23.72-.5.99-.82v-1.38h-1.3c-1.04,0-1.55-.52-1.55-1.55v-1.1c0-1.03.52-1.55,1.55-1.55h4.12c1.03,0,1.55.52,1.55,1.55v8.3c0,1.03-.52,1.55-1.55,1.55h-.93c-.51,0-.89-.12-1.16-.35-.26-.24-.4-.52-.4-.86v-.25s0-.07.03-.08h-.06c-.36.36-.8.68-1.33.96-.45.24-1.01.46-1.68.65-.67.19-1.45.28-2.36.28-1.3,0-2.54-.24-3.74-.72-1.2-.48-2.25-1.16-3.18-2.05-.92-.88-1.66-1.97-2.2-3.25-.55-1.28-.82-2.71-.82-4.29Z"/>
          <path class="cls-2" d="M148.06,22.04c0-1.03.52-1.55,1.55-1.55h1.83c1.03,0,1.55.52,1.55,1.55v6.52h7.34v-6.52c0-1.03.52-1.55,1.55-1.55h1.83c1.03,0,1.55.52,1.55,1.55v17.07c0,1.03-.52,1.55-1.55,1.55h-1.83c-1.04,0-1.55-.52-1.55-1.55v-6.35h-7.34v6.35c0,1.03-.52,1.55-1.55,1.55h-1.83c-1.04,0-1.55-.52-1.55-1.55v-17.07Z"/>
          <path class="cls-2" d="M173.52,24.72h-4.57c-1.03,0-1.55-.52-1.55-1.55v-1.13c0-1.03.52-1.55,1.55-1.55h14.08c1.03,0,1.55.52,1.55,1.55v1.13c0,1.04-.52,1.55-1.55,1.55h-4.57v14.39c0,1.03-.52,1.55-1.55,1.55h-1.83c-1.03,0-1.55-.52-1.55-1.55v-14.39Z"/>
          <path class="cls-2" d="M186.69,22.04c0-1.03.52-1.55,1.55-1.55h1.83c1.03,0,1.55.52,1.55,1.55v6.52h7.34v-6.52c0-1.03.52-1.55,1.55-1.55h1.83c1.03,0,1.55.52,1.55,1.55v17.07c0,1.03-.52,1.55-1.55,1.55h-1.83c-1.04,0-1.55-.52-1.55-1.55v-6.35h-7.34v6.35c0,1.03-.52,1.55-1.55,1.55h-1.83c-1.03,0-1.55-.52-1.55-1.55v-17.07Z"/>
          <path class="cls-2" d="M206.76,30.45c0-1.45.25-2.8.76-4.05.51-1.25,1.23-2.34,2.16-3.27s2.05-1.66,3.34-2.19c1.3-.53,2.73-.79,4.29-.79s2.99.26,4.29.79c1.3.53,2.41,1.26,3.34,2.19s1.65,2.02,2.16,3.27c.51,1.25.76,2.6.76,4.05s-.25,2.87-.76,4.15c-.51,1.28-1.23,2.39-2.16,3.34-.93.95-2.05,1.7-3.34,2.24-1.3.55-2.73.82-4.29.82s-2.99-.27-4.29-.82c-1.3-.55-2.41-1.29-3.34-2.24-.93-.95-1.65-2.06-2.16-3.34-.51-1.28-.76-2.66-.76-4.15ZM211.87,30.45c0,.87.14,1.67.41,2.4.27.73.65,1.37,1.13,1.9.48.54,1.05.96,1.72,1.27.67.31,1.4.47,2.19.47s1.52-.16,2.19-.47c.67-.31,1.24-.73,1.72-1.27s.86-1.17,1.13-1.9c.27-.73.41-1.53.41-2.4s-.14-1.59-.41-2.3c-.27-.71-.65-1.32-1.13-1.83-.48-.52-1.05-.92-1.72-1.21-.67-.29-1.4-.44-2.19-.44s-1.52.15-2.19.44c-.67.29-1.24.7-1.72,1.21-.48.52-.86,1.13-1.13,1.83-.27.71-.41,1.47-.41,2.3Z"/>
          <path class="cls-2" d="M230.52,22.04c0-1.03.52-1.55,1.55-1.55h1.83c1.03,0,1.55.52,1.55,1.55v11.2c0,1.07.31,1.88.95,2.43.63.55,1.48.82,2.55.82s1.92-.27,2.55-.82c.63-.55.95-1.35.95-2.43v-11.2c0-1.03.52-1.55,1.55-1.55h1.83c1.03,0,1.55.52,1.55,1.55v11.2c0,1.13-.2,2.17-.61,3.12-.4.95-.97,1.77-1.71,2.46-.73.69-1.62,1.22-2.65,1.61-1.03.39-2.18.58-3.44.58s-2.44-.19-3.49-.58c-1.04-.39-1.93-.92-2.67-1.61-.73-.69-1.3-1.51-1.71-2.46-.4-.95-.61-1.99-.61-3.12v-11.2Z"/>
          <path class="cls-2" d="M250.73,39.01c-.15-.11-.28-.24-.4-.38-.11-.14-.19-.3-.24-.48-.05-.18-.05-.37,0-.58.05-.21.16-.44.35-.71l.88-1.27c.28-.41.59-.64.93-.69.34-.05.74.06,1.21.32.17.09.37.21.61.34.24.13.51.27.82.41.31.14.65.26,1.03.35.38.09.78.14,1.21.14.73,0,1.27-.14,1.62-.41.35-.27.52-.61.52-1,0-.47-.22-.87-.66-1.2-.44-.33-.99-.64-1.65-.93-.66-.29-1.37-.6-2.15-.93-.77-.33-1.49-.74-2.14-1.23-.66-.49-1.21-1.09-1.65-1.79-.44-.71-.66-1.58-.66-2.64,0-.92.18-1.76.55-2.53s.87-1.42,1.51-1.96c.64-.55,1.4-.96,2.29-1.26.88-.29,1.83-.44,2.85-.44,1.19,0,2.27.16,3.25.49.98.33,1.71.66,2.2,1,.41.3.65.63.71.97.06.35-.02.73-.23,1.14l-.68,1.33c-.28.55-.61.82-.97.83-.37,0-.75-.09-1.14-.3-.47-.23-.96-.44-1.45-.64-.5-.2-1.08-.3-1.74-.3-.79,0-1.35.14-1.69.41-.34.27-.51.61-.51,1,0,.49.22.89.66,1.21.44.32.99.62,1.65.9.66.28,1.37.58,2.15.89.77.31,1.49.71,2.14,1.19.66.48,1.21,1.07,1.65,1.78.44.71.66,1.59.66,2.64,0,.85-.16,1.65-.47,2.41-.31.76-.77,1.43-1.37,2-.6.57-1.35,1.03-2.23,1.37-.88.34-1.89.51-3.02.51-.72,0-1.4-.07-2.05-.2-.65-.13-1.25-.3-1.81-.49-.56-.2-1.05-.41-1.5-.65-.44-.24-.8-.46-1.06-.66Z"/>
          <path class="cls-2" d="M267.1,22.04c0-1.03.52-1.55,1.55-1.55h9.54c1.03,0,1.55.52,1.55,1.55v1.13c0,1.04-.52,1.55-1.55,1.55h-6.15v3.67h4.6c1.03,0,1.55.52,1.55,1.55v1.13c0,1.03-.52,1.55-1.55,1.55h-4.6v3.81h6.55c1.03,0,1.55.52,1.55,1.55v1.13c0,1.03-.52,1.55-1.55,1.55h-9.93c-1.03,0-1.55-.52-1.55-1.55v-17.07Z"/>
        </g>
        <g>
          <path class="cls-1" d="M102.09,55.37c0-1.47.25-2.82.75-4.05.5-1.23,1.19-2.3,2.07-3.2.88-.9,1.93-1.61,3.15-2.12,1.21-.51,2.54-.76,3.99-.76,1.2,0,2.4.19,3.6.58,1.19.39,2.22.9,3.06,1.54.3.28.34.61.11.99l-.25.37c-.26.36-.58.4-.96.11-.79-.55-1.67-.97-2.64-1.28-.97-.31-1.92-.47-2.86-.47-1.17,0-2.24.2-3.22.61-.98.4-1.82.97-2.53,1.71-.71.73-1.26,1.61-1.65,2.62-.4,1.02-.59,2.13-.59,3.33s.2,2.39.61,3.44c.4,1.05.96,1.96,1.68,2.72.71.76,1.57,1.35,2.55,1.78s2.06.64,3.23.64c1.02,0,2.04-.19,3.08-.56,1.03-.38,1.98-.9,2.82-1.58.36-.28.68-.25.96.08l.25.31c.26.36.24.69-.06.99-.96.81-2.07,1.44-3.34,1.9-1.27.46-2.53.69-3.77.69-1.47,0-2.81-.26-4.04-.78-1.22-.52-2.28-1.24-3.17-2.16-.89-.92-1.59-2.02-2.09-3.29-.5-1.27-.75-2.66-.75-4.16Z"/>
          <path class="cls-1" d="M123.45,46.28c0-.47.23-.71.68-.71h5.36c.85,0,1.55.04,2.12.13.56.08,1.06.23,1.5.44.94.45,1.67,1.11,2.17,1.98.51.87.76,1.86.76,2.99,0,1.35-.34,2.53-1.03,3.51-.69.99-1.59,1.64-2.72,1.96v.06c.04.06.1.16.18.3.08.14.19.31.32.49l3.87,7.17c.13.26.15.47.06.61-.09.14-.27.21-.54.21h-.73c-.4,0-.67-.16-.82-.48l-4.23-7.87h-5v7.65c0,.47-.23.71-.68.71h-.59c-.45,0-.68-.24-.68-.71v-18.43ZM130.11,55.31c1.19,0,2.14-.38,2.85-1.13.71-.75,1.07-1.76,1.07-3.02,0-.79-.18-1.49-.55-2.1-.37-.61-.88-1.07-1.54-1.37-.32-.13-.67-.23-1.04-.28-.38-.06-.89-.08-1.55-.08h-3.95v7.99h4.71Z"/>
          <path class="cls-1" d="M140.64,46.28c0-.47.23-.71.68-.71h9.79c.47,0,.71.24.71.71v.34c0,.47-.24.71-.71.71h-8.52v7.22h6.83c.47,0,.71.23.71.68v.37c0,.47-.24.71-.71.71h-6.83v7.37h9.03c.47,0,.71.24.71.71v.34c0,.47-.24.71-.71.71h-10.3c-.45,0-.68-.24-.68-.71v-18.43Z"/>
          <path class="cls-1" d="M160.84,46.14c.09-.38.35-.56.76-.56h.93c.4,0,.65.19.76.56l6.83,18.46c.15.55-.04.82-.56.82h-.62c-.45,0-.72-.19-.79-.56l-2.12-5.76h-7.96l-2.09,5.76c-.11.38-.38.56-.79.56h-.59c-.56,0-.76-.27-.59-.82l6.83-18.46ZM165.47,57.4l-2.62-7.2c-.13-.34-.26-.76-.4-1.27-.13-.51-.24-.95-.34-1.33h-.06c-.09.38-.22.82-.37,1.33-.15.51-.28.93-.4,1.27l-2.65,7.2h6.83Z"/>
          <path class="cls-1" d="M176.14,47.33h-6.41c-.47,0-.71-.24-.71-.71v-.34c0-.47.24-.71.71-.71h14.79c.47,0,.71.24.71.71v.34c0,.47-.24.71-.71.71h-6.43v17.38c0,.47-.23.71-.68.71h-.56c-.47,0-.71-.24-.71-.71v-17.38Z"/>
          <path class="cls-1" d="M188.16,46.28c0-.47.23-.71.68-.71h.59c.45,0,.68.24.68.71v18.43c0,.47-.23.71-.68.71h-.59c-.45,0-.68-.24-.68-.71v-18.43Z"/>
          <path class="cls-1" d="M193.39,46.4c-.21-.55-.02-.82.56-.82h.65c.41,0,.68.19.79.56l5.28,14.51c.13.38.27.82.41,1.33.14.51.26.92.35,1.24h.06c.09-.32.21-.73.35-1.24.14-.51.28-.95.41-1.33l5.33-14.51c.09-.38.35-.56.76-.56h.68c.53,0,.72.27.56.82l-6.86,18.46c-.13.38-.4.56-.79.56h-.93c-.43,0-.69-.19-.76-.56l-6.86-18.46Z"/>
          <path class="cls-1" d="M212.86,46.28c0-.47.23-.71.68-.71h9.79c.47,0,.71.24.71.71v.34c0,.47-.24.71-.71.71h-8.52v7.22h6.83c.47,0,.71.23.71.68v.37c0,.47-.24.71-.71.71h-6.83v7.37h9.03c.47,0,.71.24.71.71v.34c0,.47-.24.71-.71.71h-10.3c-.45,0-.68-.24-.68-.71v-18.43Z"/>
        </g>
      </g>
    </g>
  </g>
</svg>